<svg xmlns="http://www.w3.org/2000/svg" viewBox="0 0 46.06 47"><defs><style>.cls-1{fill:#c1c1c1;}.cls-2{fill:#1d2128;}</style></defs><title>surface1ldpi</title><g id="Layer_2" data-name="Layer 2"><g id="Layer_1-2" data-name="Layer 1"><g id="surface1"><path id="Path_3071" data-name="Path 3071" class="cls-1" d="M4.41,21H9.66V38.68H4.41Z"/><path id="Path_3072" data-name="Path 3072" class="cls-1" d="M11.35,16.48v3.35A1.14,1.14,0,0,1,10.2,21H3.85A1.14,1.14,0,0,1,2.7,19.83V16.48Z"/><path id="Path_3073" data-name="Path 3073" class="cls-1" d="M11.35,43.19V39.83a1.15,1.15,0,0,0-1.15-1.15H3.85A1.15,1.15,0,0,0,2.7,39.83v3.36Z"/><path id="Path_3074" data-name="Path 3074" class="cls-1" d="M20.39,21h5.25V38.68H20.39Z"/><path id="Path_3075" data-name="Path 3075" class="cls-1" d="M27.34,16.48v3.35A1.16,1.16,0,0,1,26.19,21H19.84a1.14,1.14,0,0,1-1.15-1.15V16.48Z"/><path id="Path_3076" data-name="Path 3076" class="cls-1" d="M27.34,43.19V39.83a1.16,1.16,0,0,0-1.15-1.15H19.84a1.15,1.15,0,0,0-1.15,1.15v3.36Z"/><path id="Path_3077" data-name="Path 3077" class="cls-1" d="M36.37,21h5.25V38.68H36.37Z"/><path id="Path_3078" data-name="Path 3078" class="cls-1" d="M43.32,16.48v3.35A1.16,1.16,0,0,1,42.17,21H35.82a1.16,1.16,0,0,1-1.15-1.15V16.48Z"/><path id="Path_3079" data-name="Path 3079" class="cls-1" d="M43.32,43.19V39.83a1.16,1.16,0,0,0-1.15-1.15H35.82a1.16,1.16,0,0,0-1.15,1.15v3.36Z"/><path id="Path_3080" data-name="Path 3080" class="cls-1" d="M45.39,12.39,23,.62.64,12.39Z"/><path id="Path_3081" data-name="Path 3081" class="cls-1" d="M2.74,12H43.28a1.28,1.28,0,0,1,1.28,1.28V15.2a1.28,1.28,0,0,1-1.28,1.28H2.74A1.28,1.28,0,0,1,1.46,15.2V13.27A1.28,1.28,0,0,1,2.74,12Z"/><path id="Path_3082" data-name="Path 3082" class="cls-1" d="M44.56,46.38v-1.9a1.3,1.3,0,0,0-1.3-1.3H2.76a1.3,1.3,0,0,0-1.3,1.3v1.9Z"/><path id="Path_3083" data-name="Path 3083" class="cls-2" d="M.86,13l0,.28V15.2A1.93,1.93,0,0,0,2.08,17v2.85a1.79,1.79,0,0,0,1.7,1.78V38.05a1.79,1.79,0,0,0-1.7,1.78v2.84a1.92,1.92,0,0,0-1.24,1.8v1.89a.63.63,0,0,0,.63.64H44.56a.64.64,0,0,0,.64-.64V44.47A1.93,1.93,0,0,0,44,42.67V39.81A1.79,1.79,0,0,0,42.25,38V21.61A1.78,1.78,0,0,0,44,19.83V17A1.93,1.93,0,0,0,45.2,15.2V13.28a1.27,1.27,0,0,0,0-.28.62.62,0,0,0,.83-.34.63.63,0,0,0-.32-.83L23.31.07a.7.7,0,0,0-.6,0L.34,11.82a.64.64,0,0,0-.27.86.64.64,0,0,0,.8.3Zm43.06.3v1.93a.64.64,0,0,1-.64.64H2.74a.64.64,0,0,1-.64-.64V13.28a.64.64,0,0,1,.64-.64H43.28A.64.64,0,0,1,43.92,13.28ZM42.68,18.1H35.31v-1h7.37ZM41,38.05H37V21.63h4Zm-5.25,0A1.79,1.79,0,0,0,34,39.83v2.71H28V39.83a1.79,1.79,0,0,0-1.7-1.78V21.61A1.78,1.78,0,0,0,28,19.83V17.11H34v2.72a1.8,1.8,0,0,0,1.7,1.78Zm7,4.5H35.31v-1h7.37Zm-23.35,0v-1h7.36v1Zm-7.34,0V39.83a1.79,1.79,0,0,0-1.7-1.78V21.62A1.79,1.79,0,0,0,12,19.84V17.11h6.06v2.72a1.8,1.8,0,0,0,1.7,1.78V38.05a1.8,1.8,0,0,0-1.7,1.78v2.71Zm-8.64,0v-1h7.36v1Zm1.7-20.92H9V38h-4Zm5.67-4.52v1H3.35v-1Zm16,0v1H19.33v-1Zm0,23.17H19.33v-.46a.51.51,0,0,1,.51-.51h6.35a.51.51,0,0,1,.51.51h0ZM25,38H21V21.63h4Zm1.19-17.68H19.84a.51.51,0,0,1-.51-.51v-.47H26.7v.47a.51.51,0,0,1-.51.51ZM3.35,19.84v-.47h7.37v.47a.51.51,0,0,1-.52.51H3.84a.52.52,0,0,1-.5-.52Zm.5,19.48h6.34a.51.51,0,0,1,.51.51h0v.46H3.35v-.46a.51.51,0,0,1,.49-.51Zm40.06,6.42H2.1V44.48a.67.67,0,0,1,.66-.66h40.5a.66.66,0,0,1,.66.66Zm-1.24-5.91v.46H35.31v-.46a.51.51,0,0,1,.51-.51h6.36a.5.5,0,0,1,.5.51Zm-.49-19.48H35.82a.51.51,0,0,1-.51-.51h0v-.47h7.37v.47a.51.51,0,0,1-.5.51ZM23,1.35l19,10H4Z"/></g></g></g></svg>