<svg xmlns="http://www.w3.org/2000/svg" viewBox="0 0 80.02 80"><defs><style>.cls-1{fill:#2a2e43;}</style></defs><title>subleaseldpi</title><g id="Layer_2" data-name="Layer 2"><g id="Layer_1-2" data-name="Layer 1"><g id="sublease"><path id="Path_3085" data-name="Path 3085" class="cls-1" d="M80,69.71,69.73,64.57H41.14V59.43H74.57V25.88a4.17,4.17,0,0,0,5-3.07,4.46,4.46,0,0,0,.12-1v-.69a4.27,4.27,0,0,0-1.8-3.45L52.72,0,41.29,8H9.56L.3,23.43H2.57V39.29L0,42.23V80H41.14V74.85H69.73ZM45,67.14H68.14v5.14H45Zm-2.57,5.14H37.29a2.57,2.57,0,0,1,0-5.14h5.14Zm28.28-.79V67.94l3.56,1.77ZM64.29,56.85H54V42.71a1.28,1.28,0,0,1,1.29-1.28H63a1.28,1.28,0,0,1,1.29,1.28Zm2.57,0V42.71A3.87,3.87,0,0,0,63,38.85H55.29a3.87,3.87,0,0,0-3.86,3.86V56.85H41.14V31.14H33.43V24.47L52.72,10.85,72,24.47V56.85Zm9.58-37.1a1.65,1.65,0,0,1,.7,1.35v.69a1.63,1.63,0,0,1-1.64,1.64,1.57,1.57,0,0,1-.94-.3L52.72,7.71,30.88,23.13a1.65,1.65,0,0,1-2.29-.4,1.59,1.59,0,0,1-.3-.94v-.7a1.64,1.64,0,0,1,.7-1.34L52.72,3.14ZM11,10.57h26.6l-10.1,7.08a4.19,4.19,0,0,0-1.77,3.2H4.84ZM5.14,23.43H26A4.23,4.23,0,0,0,29.92,26a4.08,4.08,0,0,0,.93-.12v5.26H9.7L5.14,36.35ZM9,35.85v5.58H4.12ZM38.57,77.43h-36V44h9V33.71h27V64.57H37.29a5.15,5.15,0,1,0,0,10.29h1.28Z"/><path id="Path_3086" data-name="Path 3086" class="cls-1" d="M28.29,46.57H25.46l2.53-3-2-1.65-3.9,4.68h-17v18H28.29ZM25.71,62h-18V49.14H20l-5.91,7.1-2.87-2.86L9.38,55.2l4.85,4.85,9.09-10.9h2.4Z"/><path id="Path_3087" data-name="Path 3087" class="cls-1" d="M5.14,72.29H29.57v2.57H5.14Z"/><path id="Path_3088" data-name="Path 3088" class="cls-1" d="M5.14,67.14H29.57v2.57H5.14Z"/><path id="Path_3089" data-name="Path 3089" class="cls-1" d="M14.14,36.29H36v2.57H14.14Z"/><path id="Path_3090" data-name="Path 3090" class="cls-1" d="M56.57,46.57h2.57v2.57H56.57Z"/><path id="Path_3091" data-name="Path 3091" class="cls-1" d="M42.43,29.86H63V22.14H42.43ZM45,24.71H60.43v2.57H45Z"/></g></g></g></svg>