<svg xmlns="http://www.w3.org/2000/svg" viewBox="0 0 77 77"><defs><style>.cls-1{fill:#2a2e43;}</style></defs><title>houseldpi</title><g id="Layer_2" data-name="Layer 2"><g id="Layer_1-2" data-name="Layer 1"><g id="house"><g id="Group_672" data-name="Group 672"><g id="Group_671" data-name="Group 671"><path id="Path_3013" data-name="Path 3013" class="cls-1" d="M20.44,69.49A6.41,6.41,0,0,0,8.36,67.76a5.52,5.52,0,0,0-.66-.4V46.2a1.29,1.29,0,0,0-2.57,0V66.73A5.14,5.14,0,0,0,5.13,77H19.25a3.85,3.85,0,0,0,1.19-7.51Zm-1.19,4.94H5.13A2.57,2.57,0,0,1,5,69.3h.1A2.79,2.79,0,0,1,7.78,71a1.29,1.29,0,0,0,2.49-.44,3.85,3.85,0,1,1,7.7,0h0a1.28,1.28,0,0,0,1.28,1.28,1.28,1.28,0,0,1,0,2.56Z"/><path id="Path_3014" data-name="Path 3014" class="cls-1" d="M75.72,10.27H51.33a1.28,1.28,0,0,0,0,2.56h23.1v27.7l-35-35a1.29,1.29,0,0,0-1.82,0l-35,35V12.83H16.68A1.28,1.28,0,0,0,18,11.55V6.42a1.29,1.29,0,0,0-1.29-1.29H15.4V2.57h7.7V5.13H21.82a1.3,1.3,0,0,0-1.29,1.29v5.13a1.29,1.29,0,0,0,1.29,1.28h3.85a1.28,1.28,0,0,0,0-2.56H23.1V7.7h1.28a1.28,1.28,0,0,0,1.29-1.28V1.28A1.28,1.28,0,0,0,24.38,0H14.12a1.29,1.29,0,0,0-1.29,1.28V6.42A1.29,1.29,0,0,0,14.12,7.7H15.4v2.57H1.28A1.28,1.28,0,0,0,0,11.55V43.63a1.28,1.28,0,0,0,2.19.91L38.5,8.23,74.81,44.54a1.28,1.28,0,0,0,1.81,0,1.25,1.25,0,0,0,.38-.91V11.55A1.28,1.28,0,0,0,75.72,10.27Z"/><path id="Path_3015" data-name="Path 3015" class="cls-1" d="M71.87,66.73V46.2a1.29,1.29,0,0,0-2.57,0V67.37a3.91,3.91,0,0,0-.65.4,6.42,6.42,0,0,0-12.09,1.72,3.87,3.87,0,0,0-2.66,3.66,4,4,0,0,0,.24,1.29H32.08a1.28,1.28,0,1,0,0,2.56H71.87a5.13,5.13,0,0,0,0-10.26Zm0,7.7H57.75a1.28,1.28,0,0,1,0-2.56A1.28,1.28,0,0,0,59,70.58a3.85,3.85,0,0,1,7.7,0A1.29,1.29,0,0,0,68,71.87a1.31,1.31,0,0,0,1.2-.84,2.79,2.79,0,0,1,2.65-1.73,2.57,2.57,0,0,1,.1,5.13Z"/><path id="Path_3016" data-name="Path 3016" class="cls-1" d="M43.63,25.67A5.13,5.13,0,1,0,38.5,30.8,5.13,5.13,0,0,0,43.63,25.67Zm-7.7,0a2.57,2.57,0,1,1,2.57,2.56h0A2.57,2.57,0,0,1,35.93,25.67Z"/><path id="Path_3017" data-name="Path 3017" class="cls-1" d="M62.88,43.63H52.62a1.3,1.3,0,0,0-1.29,1.29V59H50.05a1.29,1.29,0,0,0,0,2.57h15.4a1.29,1.29,0,0,0,0-2.57H64.17V44.92A1.29,1.29,0,0,0,62.88,43.63ZM61.6,59H53.9V53.9h7.7Zm0-7.7H53.9V46.2h7.7Z"/><path id="Path_3018" data-name="Path 3018" class="cls-1" d="M51.33,70.58a1.28,1.28,0,0,0-1.28-1.28H46.2V44.92a1.29,1.29,0,0,0-1.28-1.29H32.08a1.29,1.29,0,0,0-1.28,1.29V69.3H27a1.28,1.28,0,0,0-1.28,1.28v5.13a1.29,1.29,0,1,0,2.57,0V71.86H50.05A1.28,1.28,0,0,0,51.33,70.58Zm-7.7-14.11H42.35a1.28,1.28,0,1,0,0,2.56h1.28V69.3H33.37V46.2H43.63Z"/><path id="Path_3019" data-name="Path 3019" class="cls-1" d="M24.38,43.63H14.12a1.3,1.3,0,0,0-1.29,1.29V59H11.55a1.29,1.29,0,0,0,0,2.57H27A1.29,1.29,0,0,0,27,59H25.67V44.92A1.29,1.29,0,0,0,24.38,43.63ZM23.1,59H15.4V53.9h7.7Zm0-7.7H15.4V46.2h7.7Z"/></g></g></g></g></g></svg>