<svg xmlns="http://www.w3.org/2000/svg" viewBox="0 0 138 138"><defs><style>.cls-1,.cls-2{fill:#284174;}.cls-1{opacity:0.56;isolation:isolate;}</style></defs><title>participantldpi</title><g id="Layer_2" data-name="Layer 2"><g id="Layer_1-2" data-name="Layer 1"><g id="participant"><path id="Path_2983" data-name="Path 2983" class="cls-1" d="M30.93,62.84v3l7.14,8.92,7.14-8.92v-3A18.88,18.88,0,0,1,30.93,62.84Z"/><path id="Path_2984" data-name="Path 2984" class="cls-1" d="M52.35,45.21V30.8A21.56,21.56,0,0,1,38.07,23,21.56,21.56,0,0,1,23.79,30.8V45.21a14.28,14.28,0,0,0,28.56,0Z"/><path id="Path_2985" data-name="Path 2985" class="cls-2" d="M19,26.17h2.38a16.76,16.76,0,0,0,13.33-6.66l3.33-4.44,3.33,4.44a16.72,16.72,0,0,0,13.32,6.66H57.1v5a11.85,11.85,0,0,1,4.76,2.2V23.79a23.79,23.79,0,0,0-47.58,0v9.58A11.68,11.68,0,0,1,19,31.17Z"/><path id="Path_2986" data-name="Path 2986" class="cls-2" d="M54.53,54.73A19.06,19.06,0,0,1,50,60v4.79l18.9,5.45a16.47,16.47,0,0,1,2.52,1V63.71a26.63,26.63,0,0,1-8.27-12.46,11.78,11.78,0,0,1-8.39,3.47Z"/><path id="Path_2987" data-name="Path 2987" class="cls-1" d="M19.59,49.7A19.44,19.44,0,0,1,19,45.21V36.13a7.1,7.1,0,0,0,.56,13.57Z"/><path id="Path_2988" data-name="Path 2988" class="cls-1" d="M57.1,36.13v9.08a18.41,18.41,0,0,1-.56,4.49,7.1,7.1,0,0,0,.56-13.57Z"/><path id="Path_2989" data-name="Path 2989" class="cls-2" d="M81.81,63.5a9.36,9.36,0,0,1,11.83-5.92,9.61,9.61,0,0,1,2.23,1.09,7.28,7.28,0,0,0,8.12,0,9.36,9.36,0,0,1,13,2.6,8.87,8.87,0,0,1,1.09,2.23l.29.87a11.8,11.8,0,0,1,5.38,2.29V57.1a23.79,23.79,0,1,0-47.58,0v9.56a11.8,11.8,0,0,1,5.38-2.29Z"/><path id="Path_2990" data-name="Path 2990" class="cls-1" d="M119,78.52a19.44,19.44,0,0,1-.56,4.49A7.1,7.1,0,0,0,119,69.44Z"/><path id="Path_2991" data-name="Path 2991" class="cls-1" d="M92.79,96.15V99.1L99.93,108l7.14-8.92V96.15A18.88,18.88,0,0,1,92.79,96.15Z"/><path id="Path_2992" data-name="Path 2992" class="cls-1" d="M114.21,78.52V67l-.67-2a4.6,4.6,0,0,0-5.81-2.91,4.5,4.5,0,0,0-1.1.54,12.06,12.06,0,0,1-13.4,0,4.59,4.59,0,0,0-6.37,1.28A4.08,4.08,0,0,0,86.33,65l-.67,2V78.52a14.28,14.28,0,0,0,28.55,0Z"/><path id="Path_2993" data-name="Path 2993" class="cls-1" d="M81.46,83a18.41,18.41,0,0,1-.56-4.49V69.44A7.1,7.1,0,0,0,81.46,83Z"/><path id="Path_2994" data-name="Path 2994" class="cls-2" d="M27.69,69.35,8.6,74.85A12,12,0,0,0,0,86.28v8.89H9.52V85.65h4.76v9.52h9.51v-19h9.33Z"/><path id="Path_2995" data-name="Path 2995" class="cls-2" d="M61.86,95.17V85.66h4.76v9.51h9.52V86.28c0-.24,0-.48,0-.73a11.8,11.8,0,0,1-4.64-8.72,12,12,0,0,0-3.91-2L48.45,69.35,43,76.14h9.33v19Z"/><path id="Path_2996" data-name="Path 2996" class="cls-1" d="M28.55,104.69h19V80.9h-19Zm4.76-19h9.52v4.76H33.31Zm0,9.52h9.52v4.76H33.31Z"/><path id="Path_2997" data-name="Path 2997" class="cls-2" d="M89.55,102.66l-19.09,5.5a12,12,0,0,0-8.6,11.43v8.89h9.52V119h4.76v9.52h9.51v-19H95Z"/><path id="Path_2998" data-name="Path 2998" class="cls-2" d="M26.17,64.83V60a19.24,19.24,0,0,1-4.56-5.32h-.2A11.8,11.8,0,0,1,13,51.22a27,27,0,0,1-9.5,13.52c1.69,1.77,4.65,4.18,8.26,4.24Z"/><path id="Path_2999" data-name="Path 2999" class="cls-1" d="M90.41,138h19V114.21h-19Zm4.76-19h9.52v4.76H95.17Zm0,9.51h9.52v4.76H95.17Z"/><path id="Path_3000" data-name="Path 3000" class="cls-2" d="M129.4,108.16l-19.08-5.5-5.44,6.79h9.33v19h9.51V119h4.76v9.52H138v-8.89A12,12,0,0,0,129.4,108.16Z"/></g></g></g></svg>