<svg xmlns="http://www.w3.org/2000/svg" viewBox="0 0 308.96 213.97"><defs><style>.cls-1{fill:#284174;}.cls-2{fill:#3f3d56;}.cls-3{fill:#f2f2f2;}.cls-4{opacity:0.1;isolation:isolate;}.cls-5{fill:#a0616a;}.cls-6{fill:#2f2e41;}.cls-7{fill:#ff6584;}</style></defs><title>undraw cancel u1itldpi</title><g id="Layer_2" data-name="Layer 2"><g id="Layer_1-2" data-name="Layer 1"><g id="undraw_cancel_u1it" data-name="undraw cancel u1it"><path id="Path_3034" data-name="Path 3034" class="cls-1" d="M220.91,146.31c0,19.36-11.52,26.13-25.71,26.13s-25.72-6.77-25.72-26.13,25.72-44,25.72-44S220.91,127,220.91,146.31Z"/><path id="Path_3035" data-name="Path 3035" class="cls-2" d="M194.52,153.27l10.95-20.05-10.91,17.5.11-7.28,7.56-14.51-7.52,12.58.21-13.11L203,116.85,195,126.34l.13-24-.8,30.45-8.19-12.54,8.1,15.11L193.42,150l0-.39-9.48-13.25L193.38,151l-.1,1.83,0,0V153l-2,19.53h2.6l.31-1.58,9.43-14.58-9.4,13.14Z"/><path id="Path_3036" data-name="Path 3036" class="cls-3" d="M309,84.05c0,37-22,49.9-49.12,49.9S210.73,121,210.73,84.05,259.84,0,259.84,0,309,47.06,309,84.05Z"/><path id="Path_3037" data-name="Path 3037" class="cls-2" d="M258.06,128.3l.5-31L279.49,59,258.64,92.48l.22-13.92,14.43-27.71-14.37,24h0l.41-25,15.45-22.06L259.39,45.91,259.65,0l-1.6,60.77.13-2.51-15.71-24,15.46,28.86-1.46,28-.05-.74L238.31,65l18.06,27.92-.18,3.5,0,0,0,.29-3.72,70.94h5l.6-36.64,18-27.86Z"/><path id="Path_3038" data-name="Path 3038" class="cls-2" d="M307,161.5c0,11-71.62,52.47-155.35,52.47S0,192.53,0,181.49s66.21,2.08,149.93,2.08S307,150.46,307,161.5Z"/><path id="Path_3039" data-name="Path 3039" class="cls-4" d="M307,161.5c0,11-71.62,52.47-155.35,52.47S0,192.53,0,181.49s66.21,2.08,149.93,2.08S307,150.46,307,161.5Z"/><path id="Path_3040" data-name="Path 3040" class="cls-2" d="M307,161.5c0,11-71.62,40-155.35,40S0,192.53,0,181.49s66.21-10.41,149.93-10.41S307,150.45,307,161.5Z"/><ellipse id="Ellipse_2324" data-name="Ellipse 2324" class="cls-4" cx="153.3" cy="183.59" rx="64.38" ry="4.98"/><path id="Path_3041" data-name="Path 3041" class="cls-5" d="M102.3,83.81s18.84.34,15.35,3.66-16.58,0-16.58,0Z"/><path id="Path_3042" data-name="Path 3042" class="cls-1" d="M63,43.53s7.61-1.36,10.26,4.79S81.36,72,81.36,72s14.55,9.62,17.19,9.31,7.17.33,6.34,3.21-.46,6.16-2.37,6.56-5-3.43-7.27-1.58-23-4.89-24.37-6.29S58.5,51.58,58.5,51.58,58.94,43.43,63,43.53Z"/><path id="Path_3043" data-name="Path 3043" class="cls-5" d="M79.35,173.24l.87,7.33-7.33,1.92-4.19-1.92v-6.46Z"/><path id="Path_3044" data-name="Path 3044" class="cls-5" d="M59.63,178l.87,7.33-7.33,1.92L49,185.28v-6.46Z"/><path id="Path_3045" data-name="Path 3045" class="cls-6" d="M80.05,93.14l3.31,12,4.89,24.43a24.1,24.1,0,0,1-1.4,13.09C84.06,149.86,79,173.24,80,174.64s-11.86,2.44-11.69,1,1.92-20.59,1.92-20.59,2.44-16.93,3.67-19-5.59-7.33-5.59-7.33S66.61,148.81,64,150.55s-2.27,28.8-3.49,29.14-10.12,1.75-11.17,0,0-30.88,0-30.88,5.93-22.17,4.71-25.3-.52-16.58-.52-16.58S49,96.63,51.43,91.22Z"/><path id="Path_3046" data-name="Path 3046" class="cls-5" d="M79.52,26.13s-7.33,9.08-7,13.09S61,31.89,61,31.89s8.55-11.52,8.55-14S79.52,26.13,79.52,26.13Z"/><circle id="Ellipse_2325" data-name="Ellipse 2325" class="cls-5" cx="79.44" cy="18.02" r="11.52"/><path id="Path_3047" data-name="Path 3047" class="cls-1" d="M50.41,86.61a21.16,21.16,0,0,0-1.08,6c.06,1.2,3.26,2,7.67,2.51,4.09.48,9.23.73,13.91.85,4.91.13,9.3.13,11.41.13,6.28,0,1.22-4-1.23-5.93S79.17,61,79.35,57.54,77.78,43.93,77.78,42s-4.11-6.93-4.11-6.93-1,2.74-4.79-.93A20.62,20.62,0,0,0,60,29.44c-3.84,1.4-10.3,16.76-10.65,19.37-.14,1.07,0,6.51.22,12.72.34,9.09.94,19.82,1.35,21C51.23,83.4,50.87,84.91,50.41,86.61Z"/><path id="Path_3048" data-name="Path 3048" class="cls-5" d="M69.05,96.81l1.22,4.36-4.71,4.88L64,99.25Z"/><path id="Path_3049" data-name="Path 3049" class="cls-6" d="M70.62,178.65s3.67,4.19,6.46,1.4,2.62-4.54,3.14-4.54,8.38,7,8.38,7,13.43,3.14,6.11,5.41-28.11.7-28.11,0S66.08,178,68,178Z"/><path id="Path_3050" data-name="Path 3050" class="cls-6" d="M50.9,183.36s3.67,4.19,6.46,1.4,2.62-4.54,3.14-4.54,8.38,7,8.38,7,13.44,3.15,6.11,5.41-28.1.7-28.1,0-.53-9.94,1.4-9.94Z"/><path id="Path_3051" data-name="Path 3051" class="cls-6" d="M66.51,27.21c-.38.24-.86.48-1.23.25a55.47,55.47,0,0,1-3.09-10.7A5.23,5.23,0,0,1,62.5,13a10,10,0,0,0,.9-1.26,9,9,0,0,0,.21-2.32c.22-1.62,1.75-2.75,3.29-3.3a42.17,42.17,0,0,0,4.68-1.44A36.13,36.13,0,0,0,75.39,2a4.88,4.88,0,0,1,4.39-.87c1.27.51,2.07,1.81,3.27,2.47a9.26,9.26,0,0,0,2.68.77,17.22,17.22,0,0,1,7,3.23A5.1,5.1,0,0,1,94,8.87c1.54,2.55-1.22,6,0,8.72l-2.64-2.08A9,9,0,0,0,89,14a3.09,3.09,0,0,0-2.7.12c-1.11.69-1.42,2.14-1.81,3.39s-1.25,2.64-2.56,2.61c-1.78,0-2.41-2.53-4-3.32a3.08,3.08,0,0,0-3.24.57,6.76,6.76,0,0,0-1.82,2.93,7.55,7.55,0,0,1-.91,2.05c-.48.66-1.09.71-1.6,1.2C69,24.83,68.15,26.15,66.51,27.21Z"/><path id="Path_3052" data-name="Path 3052" class="cls-4" d="M50.41,86.61A81.18,81.18,0,0,0,57,95.12c4.09.48,9.23.73,13.91.85a11.09,11.09,0,0,0-3.08-2.83c-2.27-1.4-7.68-18-7.68-18s6.64-17.1,8.38-23.56-5.06-10.13-5.06-10.13C60.33,38.87,54.92,45,54.92,45s-2.76,8.33-5.37,16.56c.35,9.09,1,19.82,1.36,21C51.23,83.4,50.87,84.9,50.41,86.61Z"/><path id="Path_3053" data-name="Path 3053" class="cls-1" d="M63,40.09s6.8,3.67,5.06,10.12-8.38,23.56-8.38,23.56,5.41,16.58,7.68,18,5.41,4.72,3,6.46-4.19,4.54-5.94,3.67-1.74-5.76-4.71-5.76S44.62,78,44.45,76,54.4,43.58,54.4,43.58,59.81,37.47,63,40.09Z"/><path id="Path_3054" data-name="Path 3054" class="cls-7" d="M204.46,87.79l-2-2a6.1,6.1,0,0,0-8.64,0l-38.08,38.08L117.71,85.83a6.1,6.1,0,0,0-8.64,0l-2,2a6.1,6.1,0,0,0,0,8.64l38.08,38.07-38.08,38.08a6.1,6.1,0,0,0,0,8.64l2,2a6.12,6.12,0,0,0,8.64,0l38.08-38.08,38.07,38.08a6.12,6.12,0,0,0,8.64,0l2-2a6.1,6.1,0,0,0,0-8.64L166.38,134.5l38.08-38.08A6.11,6.11,0,0,0,204.46,87.79Z"/><path id="Path_3055" data-name="Path 3055" class="cls-4" d="M105.75,174.65l36.95-37-.36-.35-35.23,35.23A6.06,6.06,0,0,0,105.75,174.65Z"/><path id="Path_3056" data-name="Path 3056" class="cls-4" d="M106.58,89a6.1,6.1,0,0,1,8.64,0l38.08,38.08L191.37,89A6.1,6.1,0,0,1,200,89l2,2a6.11,6.11,0,0,1,1.36,6.57l1.13-1.14a6.09,6.09,0,0,0,0-8.63l-2-2a6.1,6.1,0,0,0-8.64,0l-38.08,38.08L117.71,85.83a6.1,6.1,0,0,0-8.64,0l-2,2a6,6,0,0,0-1.36,2.07Z"/><path id="Path_3057" data-name="Path 3057" class="cls-4" d="M166.74,134.86l-2.85,2.84L202,175.78a6.11,6.11,0,0,1,1.36,6.57l1.13-1.13a6.1,6.1,0,0,0,0-8.64Z"/><path id="Path_3058" data-name="Path 3058" class="cls-1" d="M44.34,160.25c0,16.08-9.56,21.7-21.35,21.7s-21.36-5.62-21.36-21.7S23,123.71,23,123.71,44.34,144.17,44.34,160.25Z"/><path id="Path_3059" data-name="Path 3059" class="cls-2" d="M22.43,166l9.1-16.65-9.07,14.54.1-6.06,6.27-12-6.24,10.44.17-10.89,6.72-9.59-6.69,7.88.11-20L22.24,149l-6.8-10.41,6.72,12.55-.64,12.16,0-.33-7.87-11,7.85,12.14-.08,1.52,0,0v.12L19.77,182h2.16l.26-1.31L30,168.57l-7.81,10.92Z"/></g></g></g></svg>