<svg xmlns="http://www.w3.org/2000/svg" viewBox="0 0 427.73 177.33"><defs><style>.cls-1,.cls-3{fill:none;stroke:#284174;}.cls-1{stroke-miterlimit:10;}.cls-2{fill:#284174;}.cls-3{stroke-width:2px;stroke-dasharray:10;}</style></defs><title>Component 5 3ldpi</title><g id="Layer_2" data-name="Layer 2"><g id="Layer_1-2" data-name="Layer 1"><g id="Component_5_3" data-name="Component 5 3"><path id="Path_779" data-name="Path 779" d="M0,162.78a18.32,18.32,0,0,1,18.29-17.36c.56,0,1.11,0,1.65.07a24.35,24.35,0,0,1,42.07,0c.46,0,.92-.05,1.39-.05a18.32,18.32,0,0,1,18.29,17.36"/><path id="Path_776" data-name="Path 776" class="cls-1" d="M69.73,69.37A11.77,11.77,0,0,1,81.48,58.21c.36,0,.71,0,1.06,0a15.65,15.65,0,0,1,27,0c.29,0,.59,0,.89,0a11.77,11.77,0,0,1,11.75,11.16"/><path id="Path_763" data-name="Path 763" class="cls-2" d="M259.16.26l-97,52.51a2,2,0,0,0-.84,2.7,2,2,0,0,0,1,.91l16.56,6.24a3.93,3.93,0,0,1,2.18,2l12.83,26.51c.24,1.17,2.4,1.48,2.43.29l-2-21.89a7.91,7.91,0,0,1,1.77-4.42l50.31-49.29a1.22,1.22,0,0,1,1.09-.31,1.15,1.15,0,0,1,.87,1.36,1.09,1.09,0,0,1-.24.48L204.73,70.41a9.79,9.79,0,0,0-1.7,4.37l-2.6,18.91c.22,1.65,1.51,2.28,2.55.8l9.34-11a2,2,0,0,1,2.75-.46l24.08,17.55a2,2,0,0,0,2.72-.4,1.87,1.87,0,0,0,.34-.79L262,2.39A2,2,0,0,0,259.12.2Z"/><path id="Path_764" data-name="Path 764" class="cls-3" d="M427.09,139.33s-74.34,62.67-143.67,0-144-60-185.33-37.33-88,74.67-88,74.67"/><path id="Path_774" data-name="Path 774" d="M311.36,80.25A22.46,22.46,0,0,1,333.78,59c.68,0,1.35,0,2,.1a29.82,29.82,0,0,1,51.55,0c.56,0,1.13-.07,1.7-.07a22.44,22.44,0,0,1,22.41,21.27"/></g></g></g></svg>