<svg xmlns="http://www.w3.org/2000/svg" viewBox="0 0 22.51 17.4"><defs><style>.cls-1{fill:#fff;}</style></defs><title>upload-to-cloudldpi</title><g id="Layer_2" data-name="Layer 2"><g id="Layer_1-2" data-name="Layer 1"><g id="upload-to-cloud"><path id="Path_872" data-name="Path 872" class="cls-1" d="M17.37,5.73a6.14,6.14,0,0,0-12.25,0A5.86,5.86,0,0,0,5.86,17.4h8.91a.45.45,0,0,0,.46-.46.46.46,0,0,0-.46-.46H5.86a4.94,4.94,0,0,1-.27-9.87A.45.45,0,0,0,6,6.15v0a5.22,5.22,0,0,1,10.44,0v0a.45.45,0,0,0,.44.46,4.94,4.94,0,0,1,2.86,8.77.46.46,0,1,0,.56.72h0a5.86,5.86,0,0,0,.85-8.24,5.79,5.79,0,0,0-3.82-2.12Z"/><path id="Path_873" data-name="Path 873" class="cls-1" d="M10.78,8.24V14.1a.46.46,0,0,0,.92,0h0V8.24a.46.46,0,0,0-.92,0Z"/><path id="Path_874" data-name="Path 874" class="cls-1" d="M13.87,9.09a.45.45,0,0,0,.32-.78L11.57,5.68a.48.48,0,0,0-.65,0L8.29,8.31a.46.46,0,0,0,0,.65.45.45,0,0,0,.63,0l2.3-2.3L13.54,9A.46.46,0,0,0,13.87,9.09Z"/></g></g></g></svg>