<svg xmlns="http://www.w3.org/2000/svg" viewBox="0 0 63.1 63.1"><title>reviewldpi</title><g id="Layer_2" data-name="Layer 2"><g id="Layer_1-2" data-name="Layer 1"><g id="review"><g id="Group_674" data-name="Group 674"><g id="Group_673" data-name="Group 673"><path id="Path_3022" data-name="Path 3022" d="M44.21,20.72a18.75,18.75,0,0,0-5.37.77c.06-.67.1-1.34.1-2a19.2,19.2,0,0,0-2.13-8.86,1.23,1.23,0,1,0-2.2,1.12,16.8,16.8,0,0,1,1.86,7.74A17,17,0,0,1,13.14,35.26a1.24,1.24,0,0,0-1.33.28L9.12,38.23V33.56a1.25,1.25,0,0,0-.45-1A17,17,0,0,1,28,4.73,1.23,1.23,0,1,0,29.19,2.6,19.47,19.47,0,0,0,6.65,34.13v7.08a1.22,1.22,0,0,0,1.24,1.22,1.25,1.25,0,0,0,.86-.35L13,37.84a19.49,19.49,0,0,0,12.4.18c-.05.53-.07,1.06-.07,1.59a18.79,18.79,0,0,0,1.88,8.23,1.23,1.23,0,0,0,2.22-1.08h0a16.24,16.24,0,0,1-1.63-7.15A16.56,16.56,0,0,1,28,37,19.57,19.57,0,0,0,38.34,24.26a16.43,16.43,0,0,1,16.1,28.2,1.23,1.23,0,0,0-.47,1v5.46L50.6,55.52a1.23,1.23,0,0,0-1.26-.3,16.46,16.46,0,0,1-12.27-.82A1.23,1.23,0,0,0,36,56.62a18.93,18.93,0,0,0,13.38,1.16l4.95,5a1.23,1.23,0,0,0,1.75,0,1.25,1.25,0,0,0,.35-.86V54A18.88,18.88,0,0,0,44.21,20.72Z"/></g></g><g id="Group_676" data-name="Group 676"><g id="Group_675" data-name="Group 675"><path id="Path_3023" data-name="Path 3023" d="M32.77,51.4l-.11-.11A1.23,1.23,0,0,0,30.93,53h0l.13.13a1.23,1.23,0,0,0,1.71-1.77Z"/></g></g><g id="Group_678" data-name="Group 678"><g id="Group_677" data-name="Group 677"><path id="Path_3024" data-name="Path 3024" d="M33.76,6.25A1.23,1.23,0,0,0,32,6.09a1.25,1.25,0,0,0-.16,1.74l.1.1h0a1.24,1.24,0,0,0,.9.4,1.24,1.24,0,0,0,.9-2.08Z"/></g></g><g id="Group_680" data-name="Group 680"><g id="Group_679" data-name="Group 679"><path id="Path_3025" data-name="Path 3025" d="M14.11,15.22A1.23,1.23,0,1,0,12.37,17a1.23,1.23,0,0,0,2.1-.87A1.24,1.24,0,0,0,14.11,15.22Z"/></g></g><g id="Group_682" data-name="Group 682"><g id="Group_681" data-name="Group 681"><path id="Path_3026" data-name="Path 3026" d="M26.57,15.22A1.23,1.23,0,1,0,24.83,17a1.23,1.23,0,0,0,2.1-.87A1.24,1.24,0,0,0,26.57,15.22Z"/></g></g><g id="Group_684" data-name="Group 684"><g id="Group_683" data-name="Group 683"><path id="Path_3027" data-name="Path 3027" d="M24.19,22.5a1.24,1.24,0,0,0-1.51.87h0a3.32,3.32,0,0,1-6.42,0,1.24,1.24,0,0,0-1.51-.88A1.23,1.23,0,0,0,13.88,24a5.79,5.79,0,0,0,11.18,0,1.24,1.24,0,0,0-.87-1.51Z"/></g></g><g id="Group_686" data-name="Group 686"><g id="Group_685" data-name="Group 685"><path id="Path_3028" data-name="Path 3028" d="M39.06,35.44a1.23,1.23,0,1,0,.36.87A1.23,1.23,0,0,0,39.06,35.44Z"/></g></g><g id="Group_688" data-name="Group 688"><g id="Group_687" data-name="Group 687"><path id="Path_3029" data-name="Path 3029" d="M51.11,35.44a1.23,1.23,0,1,0,.36.87A1.23,1.23,0,0,0,51.11,35.44Z"/></g></g><g id="Group_690" data-name="Group 690"><g id="Group_689" data-name="Group 689"><path id="Path_3030" data-name="Path 3030" d="M49.66,46.61a5.63,5.63,0,0,0-10.89,0,1.23,1.23,0,0,0,2.38.63,3.17,3.17,0,0,1,6.13,0,1.23,1.23,0,0,0,2.38-.63Z"/></g></g></g></g></g></svg>