<svg xmlns="http://www.w3.org/2000/svg" viewBox="0 0 78 78"><defs><style>.cls-1,.cls-2{fill:#284174;}.cls-1{opacity:0.1;isolation:isolate;}</style></defs><title>Component 4 3ldpi</title><g id="Layer_2" data-name="Layer 2"><g id="Layer_1-2" data-name="Layer 1"><g id="Component_4_3" data-name="Component 4 3"><circle id="Ellipse_50" data-name="Ellipse 50" class="cls-1" cx="39" cy="39" r="39"/><g id="follow"><g id="Group_531" data-name="Group 531"><g id="Group_530" data-name="Group 530"><path id="Path_689" data-name="Path 689" class="cls-2" d="M24.88,28.71h3.83V24.88a.88.88,0,1,1,1.75,0v3.83h3.83a.88.88,0,1,1,0,1.75H30.47v3.83a.89.89,0,0,1-.88.88.87.87,0,0,1-.88-.88V30.47H24.88a.88.88,0,0,1,0-1.76Z"/></g></g><g id="Group_533" data-name="Group 533"><g id="Group_532" data-name="Group 532"><path id="Path_690" data-name="Path 690" class="cls-2" d="M43.71,42.83A10.29,10.29,0,0,1,54,53.12a.87.87,0,0,1-.88.88H34.29a.88.88,0,0,1-.88-.88A10.3,10.3,0,0,1,43.71,42.83Zm8.49,9.41a8.54,8.54,0,0,0-17,0Z"/></g></g><g id="Group_535" data-name="Group 535"><g id="Group_534" data-name="Group 534"><path id="Path_691" data-name="Path 691" class="cls-2" d="M43.71,27.77a5.59,5.59,0,1,1-5.59,5.58h0A5.58,5.58,0,0,1,43.71,27.77Zm0,9.41a3.83,3.83,0,1,0-3.83-3.83A3.82,3.82,0,0,0,43.71,37.18Z"/></g></g></g></g></g></g></svg>