<svg xmlns="http://www.w3.org/2000/svg" viewBox="0 0 120 119.99"><defs><style>.cls-1{fill:#bfc1c7;}.cls-2{fill:#e3e3e6;}</style></defs><title>tenant-2ldpi</title><g id="Layer_2" data-name="Layer 2"><g id="Layer_1-2" data-name="Layer 1"><g id="tenant-2"><path id="Path_2967-2" data-name="Path 2967-2" class="cls-1" d="M21.1,61.16l2.79,9.76L30,66l-5.78-5.78Z"/><path id="Path_2968-2" data-name="Path 2968-2" class="cls-1" d="M45.1,61.16,42,60.26,36.2,66l6.11,4.89Z"/><path id="Path_2969-2" data-name="Path 2969-2" class="cls-2" d="M39.31,57.07V54.64a16.36,16.36,0,0,1-12.41,0v2.43l6.2,6.21Z"/><path id="Path_2970-2" data-name="Path 2970-2" class="cls-2" d="M33.1,68.86l-5,4,3.74,3.74h2.43l3.73-3.74Z"/><path id="Path_2971-2" data-name="Path 2971-2" class="cls-2" d="M49.66,39.31a18,18,0,0,1-.15,2.07h.15a4.14,4.14,0,0,0,0-8.28Z"/><path id="Path_2972-2" data-name="Path 2972-2" class="cls-1" d="M16.55,24.83h2.07a9.53,9.53,0,0,0,7.91-4.22l1.93-2.88L30.21,19a29.19,29.19,0,0,0,17.33,5.8H49.6l.06,2.07V29a8.21,8.21,0,0,1,4.14,1.16V16.8a8.86,8.86,0,0,0-6.71-8.59l-.56-.13L43.85,5.39a18.42,18.42,0,0,0-31.44,13v11.7A8.27,8.27,0,0,1,16.55,29Z"/><path id="Path_2973-2" data-name="Path 2973-2" class="cls-2" d="M32.65,80.69,29.54,93.1h7.12l-3.1-12.41Z"/><path id="Path_2974-2" data-name="Path 2974-2" class="cls-2" d="M45.52,28.9a33.58,33.58,0,0,1-16-5.32,13.66,13.66,0,0,1-8.8,5.23v10.5a12.42,12.42,0,0,0,24.83,0Z"/><path id="Path_2975-2" data-name="Path 2975-2" class="cls-1" d="M57.93,86.58l-1.77,1.18A6.66,6.66,0,0,1,52.3,89a6.77,6.77,0,0,1-6.78-6.78V81.07a6.78,6.78,0,0,1,2.89-5.55L61.82,66.6a10.44,10.44,0,0,0-3.09-1.51L49.08,62.3,44.58,78,41.3,75.42l-3.84,3.84L40.92,93.1H56.35l1.58.79Z"/><path id="Path_2976-2" data-name="Path 2976-2" class="cls-1" d="M62.07,83.83V96l10.83,5.42-10.83,5.41V120h45.52V83.83L84.83,68.69Zm33.45-4.29L99,81.84,95.59,86.9h7.86v29H66.21v-8.28h4.14v4.14h29V91H92.83L81,108.76l-8-8L76,97.84l4.42,4.43L87.86,91H70.35v4.14H66.21V86.89H90.62Z"/><path id="Path_2977-2" data-name="Path 2977-2" class="cls-2" d="M57.93,98.52v5.72l5.72-2.86Z"/><path id="Path_2978-2" data-name="Path 2978-2" class="cls-1" d="M118.87,78.91l-34-22.63L50.74,78.94a2.64,2.64,0,0,0-1.09,2.13v1.11a2.66,2.66,0,0,0,2.65,2.65,2.6,2.6,0,0,0,1.52-.49l31-20.62,31,20.62A2.65,2.65,0,0,0,120,82.18V81.07a2.62,2.62,0,0,0-1.13-2.16Z"/><path id="Path_2979-2" data-name="Path 2979-2" class="cls-1" d="M12.41,84.83h4.14V93.1h8.73l3.46-13.84L24.9,75.42,21.62,78l-4.5-15.73L7.48,65.08A10.4,10.4,0,0,0,0,75V99.31H8.57a8.3,8.3,0,0,1,3.84-5.06Z"/><path id="Path_2980-2" data-name="Path 2980-2" class="cls-2" d="M16.55,41.38h.14a18,18,0,0,1-.14-2.07V33.1a4.14,4.14,0,0,0,0,8.28Z"/><path id="Path_2981-2" data-name="Path 2981-2" class="cls-2" d="M24.83,97.24h29v8.28h-29Z"/><path id="Path_2982-2" data-name="Path 2982-2" class="cls-2" d="M12.41,101.38a4.16,4.16,0,0,0,4.14,4.14h4.14V97.24H16.55A4.15,4.15,0,0,0,12.41,101.38Z"/></g></g></g></svg>