<svg xmlns="http://www.w3.org/2000/svg" viewBox="0 0 59.95 85.5"><defs><style>.cls-1{fill:#a7a9ac;}.cls-2{fill:#2a2e43;}</style></defs><title>userldpi</title><g id="Layer_2" data-name="Layer 2"><g id="Layer_1-2" data-name="Layer 1"><g id="user"><g id="Group_669" data-name="Group 669"><path class="cls-1" d="M29.64,41.73h.14c13-.14,11.14-17.54,11.14-17.54C40.38,12.58,30.67,12.66,29.71,12.7S19,12.56,18.49,24.19C18.51,24.21,16.63,41.61,29.64,41.73Z"/><path id="Path_3010" data-name="Path 3010" class="cls-2" d="M30,0A29.94,29.94,0,0,0,8.07,50.39a1.71,1.71,0,0,0,.37.39A30,30,0,1,0,30,0ZM12.47,50.24c8.14-2.66,11-5.89,12-8a12.64,12.64,0,0,0,5.07,1.07h.38a12.73,12.73,0,0,0,5.43-1.24c.93,2.08,3.72,5.43,12.1,8.16a26.68,26.68,0,0,1-35,0ZM29.78,40.16h-.1a8.22,8.22,0,0,1-6.46-2.69c-4-4.47-3.11-13-3.11-13.09v-.1c.42-9.25,7.26-10,9.36-10H30c2.08,0,8.93.72,9.36,10v.1c0,.09.88,8.6-3.11,13.09a8.31,8.31,0,0,1-6.48,2.69ZM50,47.72c-11.56-3.35-11.94-7.46-11.94-7.49v.08H37.9a9.93,9.93,0,0,0,.72-.73c4.77-5.38,4-14.6,3.9-15.48-.46-9.57-7-13-12.53-13h-.55c-5.49,0-12.06,3.39-12.53,13-.09.85-.89,10.1,3.9,15.47.3.33.63.65.94.95-.26.87-2,4.31-11.86,7.2a26.8,26.8,0,1,1,40.14,0Z"/><path id="Path_3011" data-name="Path 3011" class="cls-2" d="M53.55,71.74A1.59,1.59,0,0,0,52,70.15H8a1.59,1.59,0,1,0,0,3.18H52A1.61,1.61,0,0,0,53.55,71.74Z"/><path id="Path_3012" data-name="Path 3012" class="cls-2" d="M45.81,83.91a1.59,1.59,0,0,0-1.59-1.59H15.72a1.59,1.59,0,1,0,0,3.18H44.24A1.59,1.59,0,0,0,45.81,83.91Z"/></g></g></g></g></svg>