<svg xmlns="http://www.w3.org/2000/svg" viewBox="0 0 112 112"><defs><style>.cls-1,.cls-2{fill:#284174;}.cls-1{opacity:0.56;isolation:isolate;}</style></defs><title>house (2)ldpi</title><g id="Layer_2" data-name="Layer 2"><g id="Layer_1-2" data-name="Layer 1"><g id="house"><path id="Path_2940" data-name="Path 2940" class="cls-1" d="M27,38.62h7.73v7.73H27Z"/><path id="Path_2941" data-name="Path 2941" class="cls-2" d="M46.35,46.35V34.22L30.9,25.4,15.45,34.22V46.35h7.72V34.76H38.62V46.35Z"/><path id="Path_2942" data-name="Path 2942" class="cls-1" d="M15.45,50.21h30.9v3.86H15.45Z"/><path id="Path_2943" data-name="Path 2943" class="cls-1" d="M7.72,38.64V54.07h3.87V36.43Z"/><path id="Path_2944" data-name="Path 2944" class="cls-1" d="M50.21,36.43V54.07h3.86V38.64Z"/><path id="Path_2945" data-name="Path 2945" class="cls-2" d="M57.93,54.07h3.71l3.09-7.72h-6.8Z"/><path id="Path_2946" data-name="Path 2946" class="cls-2" d="M3.86,60.62a25,25,0,0,1-.51,5H58.44a25,25,0,0,1-.51-5V57.93H3.86Z"/><path id="Path_2947" data-name="Path 2947" class="cls-2" d="M46.35,104.27v-27H15.45v27h7.72V81.1H38.62v23.17Z"/><path id="Path_2948" data-name="Path 2948" class="cls-2" d="M50.21,77.24h3.86v27H50.21Z"/><path id="Path_2949" data-name="Path 2949" class="cls-2" d="M59.58,69.52H2.21A24.93,24.93,0,0,1,.35,73.38H61.44A25.38,25.38,0,0,1,59.58,69.52Z"/><path id="Path_2950" data-name="Path 2950" class="cls-1" d="M27,85h7.73v19.31H27Z"/><path id="Path_2951" data-name="Path 2951" class="cls-1" d="M7.72,77.24h3.87v27H7.72Z"/><path id="Path_2952" data-name="Path 2952" class="cls-2" d="M100.41,42.48V19.31H65.65V42.48h3.87V27H81.1V42.48H85V27H96.55V42.48Z"/><path id="Path_2953" data-name="Path 2953" class="cls-2" d="M101,0H65L58.86,15.45h48.36Z"/><path id="Path_2954" data-name="Path 2954" class="cls-2" d="M86,61.79,80.14,47.2,74.3,61.79Z"/><path id="Path_2955" data-name="Path 2955" class="cls-2" d="M104.9,46.35H95.54l6.19,15.44h9.35Z"/><path id="Path_2956" data-name="Path 2956" class="cls-1" d="M77.24,85H85v3.86H77.24Z"/><path id="Path_2957" data-name="Path 2957" class="cls-2" d="M2.65,36.69A2.62,2.62,0,0,0,4,36.34L30.9,20.94,57.83,36.35a2.66,2.66,0,0,0,3.62-1A2.76,2.76,0,0,0,61.79,34v-.53a2.65,2.65,0,0,0-1.3-2.28L30.9,13.83,1.31,31.23A2.66,2.66,0,0,0,0,33.51V34a2.64,2.64,0,0,0,2.65,2.65Z"/><path id="Path_2958" data-name="Path 2958" class="cls-1" d="M77.24,77.24H85V81.1H77.24Z"/><path id="Path_2959" data-name="Path 2959" class="cls-2" d="M110.07,108.14H1.93A1.92,1.92,0,0,0,0,110.07V112H112v-1.93A1.92,1.92,0,0,0,110.07,108.14Z"/><path id="Path_2960" data-name="Path 2960" class="cls-2" d="M108.14,65.65H62.41a21.1,21.1,0,0,0,2.92,6.66l.32.48v4.45H57.93v27h50.21Zm-7.73,27h-27V73.38h27Z"/><path id="Path_2961" data-name="Path 2961" class="cls-1" d="M88.83,85h7.72v3.86H88.83Z"/><path id="Path_2962" data-name="Path 2962" class="cls-1" d="M88.83,30.9h3.86V42.48H88.83Z"/><path id="Path_2963" data-name="Path 2963" class="cls-1" d="M73.38,30.9h3.86V42.48H73.38Z"/><path id="Path_2964" data-name="Path 2964" class="cls-2" d="M97.56,61.79,91.38,46.35H84l6.18,15.44Z"/><path id="Path_2965" data-name="Path 2965" class="cls-2" d="M70.14,61.79l6.18-15.44H68.9L62.72,61.79Z"/><path id="Path_2966" data-name="Path 2966" class="cls-1" d="M88.83,77.24h7.72V81.1H88.83Z"/></g></g></g></svg>