<svg xmlns="http://www.w3.org/2000/svg" viewBox="0 0 81.55 54.56"><defs><style>.cls-1{fill:#2a2e43;}</style></defs><title>driving-licenseldpi</title><g id="Layer_2" data-name="Layer 2"><g id="Layer_1-2" data-name="Layer 1"><g id="driving-license"><path id="Path_3001" data-name="Path 3001" class="cls-1" d="M75.14,0H6.41A6.41,6.41,0,0,0,0,6.42V48.15H0a6.41,6.41,0,0,0,6.41,6.41H75.14a6.41,6.41,0,0,0,6.41-6.41h0V6.42A6.41,6.41,0,0,0,75.14,0ZM6.41,3.18H75.14a3.24,3.24,0,0,1,3.23,3.23V43.62H31.44a1.6,1.6,0,0,0,0,3.19H78.37v1.34a3.25,3.25,0,0,1-3.23,3.23H6.41a3.23,3.23,0,0,1-3.22-3.23V46.81H17.43a1.59,1.59,0,1,0,0-3.18H3.19V6.42A3.23,3.23,0,0,1,6.41,3.18Z"/><path id="Path_3002" data-name="Path 3002" class="cls-1" d="M44.61,13.19h8.6a1.59,1.59,0,0,0,0-3.18h-8.6a1.59,1.59,0,1,0,0,3.18Z"/><path id="Path_3003" data-name="Path 3003" class="cls-1" d="M60.14,13.19H69A1.59,1.59,0,0,0,69,10H60.14a1.59,1.59,0,1,0,0,3.18Z"/><path id="Path_3004" data-name="Path 3004" class="cls-1" d="M44.61,20H69a1.6,1.6,0,0,0,0-3.19H44.61a1.6,1.6,0,0,0,0,3.19Z"/><path id="Path_3005" data-name="Path 3005" class="cls-1" d="M44.61,27h7.33a1.6,1.6,0,0,0,0-3.19H44.61a1.6,1.6,0,0,0,0,3.19Z"/><path id="Path_3006" data-name="Path 3006" class="cls-1" d="M67.34,23.81H61.13a3.85,3.85,0,0,0-3.86,3.85v6a3.86,3.86,0,0,0,3.86,3.85h6.21a3.85,3.85,0,0,0,3.85-3.85v-6A3.85,3.85,0,0,0,67.34,23.81ZM68,33.66a.67.67,0,0,1-.67.67H61.13a.67.67,0,0,1-.67-.67v-6a.67.67,0,0,1,.67-.67h6.21a.67.67,0,0,1,.67.67Z"/><path id="Path_3007" data-name="Path 3007" class="cls-1" d="M44.61,34h7.33a1.6,1.6,0,0,0,0-3.19H44.61a1.6,1.6,0,0,0,0,3.19Z"/><path id="Path_3008" data-name="Path 3008" class="cls-1" d="M12.6,37.33H35.05a1.6,1.6,0,0,0,1.6-1.59h0V11.12a1.6,1.6,0,0,0-1.6-1.59H12.6A1.6,1.6,0,0,0,11,11.12h0V35.74a1.59,1.59,0,0,0,1.59,1.59Zm20.86-3.19H14.19V29.51a5.71,5.71,0,0,1,5.56-4.16h8.13a5.7,5.7,0,0,1,5.55,4.16l0,.06Zm-13-15.37a3.39,3.39,0,1,1,3.39,3.39h0A3.39,3.39,0,0,1,20.43,18.77Zm13,5.32a8.85,8.85,0,0,0-4.08-1.8,6.58,6.58,0,0,0-2-9.07,5.74,5.74,0,0,0-1-.5h7.06ZM21.25,12.71a6.57,6.57,0,0,0-3,9.57,9.06,9.06,0,0,0-4.08,1.8V12.71Z"/><path id="Path_3009" data-name="Path 3009" class="cls-1" d="M25.43,43.89a1.59,1.59,0,0,0-1.77,2.65,1.59,1.59,0,0,0,2.21-.44,1.51,1.51,0,0,0,.16-.31A1.6,1.6,0,0,0,25.43,43.89Z"/></g></g></g></svg>